<svg width="400" height="400" viewBox="0 0 400 400" fill="none" xmlns="http://www.w3.org/2000/svg">
<path d="M0 200C0 89.5431 89.5431 0 200 0V0C310.457 0 400 89.5431 400 200V200C400 310.457 310.457 400 200 400V400C89.5431 400 0 310.457 0 200V200Z" fill="white"/>
<path d="M199.924 261.646V156.941C199.924 156.207 199.16 155.723 198.496 156.037L99.6352 202.789C98.9087 203.132 98.8637 204.149 99.557 204.555L198.418 262.509C199.085 262.899 199.924 262.419 199.924 261.646Z" fill="#393939"/>
<path d="M199.924 261.617V156.941C199.924 156.207 200.688 155.723 201.351 156.036L300.212 202.776C300.938 203.119 300.983 204.136 300.29 204.542L201.429 262.479C200.763 262.87 199.924 262.389 199.924 261.617Z" fill="#151515"/>
<path d="M199.436 285.071L98.5204 224.808C97.5907 224.253 96.5648 225.365 97.1934 226.247L198.109 367.816C198.674 368.609 199.924 368.209 199.924 367.236V285.929C199.924 285.577 199.739 285.251 199.436 285.071Z" fill="#8D8D8D"/>
<path d="M200.412 284.943L301.324 224.805C302.255 224.25 303.279 225.364 302.65 226.245L201.738 367.522C201.172 368.314 199.924 367.914 199.924 366.941V285.802C199.924 285.45 200.109 285.123 200.412 284.943Z" fill="#333333"/>
<path d="M302.255 201.554L201.783 32.4908C201.264 31.6171 199.924 31.9853 199.924 33.0017V154.727C199.924 155.115 200.147 155.467 200.498 155.632L300.969 202.97C301.862 203.39 302.759 202.402 302.255 201.554Z" fill="#333333"/>
<path d="M98.0922 201.554L198.564 32.4908C199.083 31.6171 200.424 31.9853 200.424 33.0017V154.727C200.424 155.115 200.2 155.467 199.85 155.632L99.3781 202.97C98.486 203.39 97.5884 202.402 98.0922 201.554Z" fill="#8D8D8D"/>
</svg>
