<svg width="32" height="32" viewBox="0 0 32 32" fill="none" xmlns="http://www.w3.org/2000/svg">
<circle cx="16" cy="16" r="16" fill="#00411A"/>
<path d="M9.52466 16.0108L16.0413 12.6003L22.4739 15.9861L16.0469 19.3995L9.52466 16.0108Z" fill="#009F42"/>
<path d="M9.52466 16.0108L16.0413 12.6003L22.4739 15.9861L16.0469 19.3995L9.52466 16.0108Z" fill="#01C853"/>
<path d="M16.0413 12.6003L22.4739 15.9861L16.0468 19.3995L16.0413 12.6003Z" fill="#009F42"/>
<path d="M16.0413 16.5339L22.4739 15.9861L16.0468 19.3995L16.0413 16.5339H16.0413Z" fill="#007831"/>
<path d="M16.0413 16.5339L9.52466 16.0109L16.0357 19.3995L16.0413 16.5339H16.0413Z" fill="#009F42"/>
<path d="M9.52393 16.9177C11.8066 18.1051 14.1851 19.3497 16.0267 20.312L22.4763 16.9187C20.1411 20.3218 18.1959 23.1525 16.0267 26.2856C13.8547 23.159 11.4547 19.7079 9.52393 16.9177Z" fill="#009F42"/>
<path d="M9.52393 16.9177C11.8066 18.1051 14.1851 19.3497 16.0267 20.312L22.4763 16.9187C20.1411 20.3218 18.1959 23.1525 16.0267 26.2856C13.8547 23.159 11.4547 19.7079 9.52393 16.9177Z" fill="#01C853"/>
<path d="M16.0266 20.312L22.4762 16.9187C20.141 20.3218 16.0266 26.2856 16.0266 26.2856L16.0266 20.312Z" fill="#009F42"/>
<path d="M16.0266 20.312L22.4762 16.9187C20.141 20.3218 18.1959 23.1525 16.0266 26.2856L16.0266 20.312Z" fill="#009F42"/>
<path d="M16.0251 11.6519L9.52441 15.009L15.9969 5.71423L22.4736 15.0293L16.0251 11.6519Z" fill="#01C853"/>
<path d="M16.0253 11.6519L15.9971 5.71423L22.4737 15.0293L16.0253 11.6519Z" fill="#009F42"/>
</svg>
