<svg width="32" height="32" viewBox="0 0 32 32" fill="none" xmlns="http://www.w3.org/2000/svg">
<g clip-path="url(#clip0_301_3817)">
<path d="M16 32C24.8366 32 32 24.8366 32 16C32 7.16344 24.8366 0 16 0C7.16344 0 0 7.16344 0 16C0 24.8366 7.16344 32 16 32Z" fill="url(#paint0_linear_301_3817)"/>
<path fillRule="evenodd" clip-rule="evenodd" d="M18.1227 11.9473C18.1227 8.91999 16.6734 6.31682 15.5708 5.46966C15.5662 5.46674 15.4861 5.42076 15.493 5.54238C15.493 5.54354 15.4918 5.54412 15.4918 5.54586C15.4003 11.3905 12.4652 12.9743 10.8518 15.1085C7.12796 20.0326 10.591 25.4316 14.1175 26.4295C16.0906 26.9874 13.6617 25.4415 13.3488 22.1756C12.9708 18.2283 18.1227 15.215 18.1227 11.9473Z" fill="white"/>
<path fillRule="evenodd" clip-rule="evenodd" d="M20.0573 13.9369C20.0332 13.9212 19.9989 13.9108 19.9755 13.948C19.9108 14.684 19.1222 16.2573 18.123 17.7027C14.7332 22.6041 16.6646 24.9676 17.7507 26.2366C18.3815 26.9732 17.7507 26.2366 19.3269 25.4837C19.451 25.4243 22.4027 23.8463 22.7224 20.2511C23.0319 16.7694 20.8379 14.5746 20.0573 13.9369Z" fill="white"/>
</g>
<defs>
<linearGradient id="paint0_linear_301_3817" x1="202.667" y1="2961.59" x2="2986.67" y2="177.541" gradientUnits="userSpaceOnUse">
<stop stop-color="#1253FC"/>
<stop offset="1" stop-color="#00ACE4"/>
</linearGradient>
<clipPath id="clip0_301_3817">
<rect width="32" height="32" fill="white"/>
</clipPath>
</defs>
</svg>
