<svg width="32" height="32" viewBox="0 0 32 32" fill="none" xmlns="http://www.w3.org/2000/svg">
<circle cx="16" cy="16" r="16" fill="white"/>
<path d="M21.6361 6.47735C22.393 6.47735 23.0082 5.83175 23.0082 5.03858C23.0082 4.24541 22.393 3.60083 21.6361 3.60083C20.8791 3.60493 20.2639 4.24951 20.2639 5.04268C20.2639 5.83585 20.8791 6.47735 21.6361 6.47735ZM22.0408 10.2157C22.3513 10.2133 22.6481 10.0835 22.866 9.85505C23.0839 9.62657 23.205 9.31805 23.2026 8.99736C23.2026 8.32716 22.6828 7.77891 22.0408 7.77891C21.3989 7.77891 20.8791 8.32306 20.8791 8.99736C20.8791 9.67165 21.3979 10.2157 22.0408 10.2157ZM25.2305 10.6922C25.8695 10.6922 26.3894 10.1481 26.3894 9.47685C26.3894 8.80562 25.8695 8.26147 25.2305 8.26147C24.5916 8.26147 24.0717 8.80562 24.0717 9.47685C24.0717 10.1481 24.5926 10.6922 25.2305 10.6922ZM24.8476 13.8905C25.3952 13.8905 25.8387 13.4253 25.8387 12.8524C25.8387 12.2796 25.3952 11.8143 24.8476 11.8143C24.2999 11.8143 23.8564 12.2796 23.8564 12.8524C23.8564 13.4253 24.2999 13.8905 24.8476 13.8905ZM27.4013 14.9276C27.953 14.9276 28.3994 14.4593 28.3994 13.8823C28.3994 13.3054 27.953 12.8371 27.4013 12.8371C27.2693 12.838 27.1388 12.8658 27.0172 12.9188C26.8957 12.9719 26.7854 13.0491 26.6927 13.1462C26.6 13.2432 26.5267 13.3582 26.4771 13.4845C26.4274 13.6108 26.4023 13.746 26.4032 13.8823C26.4032 14.4593 26.8507 14.9276 27.4013 14.9276ZM21.638 13.4581C21.7722 13.4573 21.905 13.4292 22.0286 13.3754C22.1523 13.3216 22.2645 13.2432 22.3589 13.1446C22.4532 13.046 22.5278 12.9292 22.5785 12.8008C22.6291 12.6724 22.6548 12.535 22.654 12.3964V12.3944C22.654 11.8072 22.2006 11.3306 21.638 11.3306C21.0755 11.3306 20.6221 11.8061 20.6221 12.3944C20.6221 12.9785 21.0765 13.4581 21.638 13.4581ZM20.7173 16.0026C21.1886 16.0026 21.5686 15.6029 21.5686 15.112C21.5704 14.8778 21.4821 14.6523 21.3231 14.4853C21.164 14.3183 20.9472 14.2234 20.7204 14.2215H20.7173C20.2461 14.2215 19.8661 14.6212 19.8661 15.112C19.8661 15.6029 20.2461 16.0026 20.7173 16.0026ZM23.912 16.4524C24.0236 16.4516 24.134 16.4281 24.2369 16.3833C24.3398 16.3384 24.433 16.2731 24.5114 16.191C24.5898 16.1089 24.6518 16.0116 24.6938 15.9048C24.7359 15.7979 24.7571 15.6836 24.7563 15.5683V15.5661C24.7563 15.0763 24.3793 14.6797 23.912 14.6797C23.4447 14.6797 23.0677 15.0763 23.0677 15.5661C23.0663 15.681 23.0867 15.7951 23.128 15.9018C23.1692 16.0086 23.2304 16.1059 23.3081 16.1882C23.3857 16.2705 23.4783 16.3362 23.5805 16.3815C23.6827 16.4268 23.7926 16.451 23.9039 16.4524H23.912ZM26.4588 17.4854C26.9301 17.4854 27.3101 17.0857 27.3101 16.5918C27.3101 16.0979 26.9301 15.6982 26.4588 15.6982C25.9875 15.6982 25.6076 16.0979 25.6076 16.5918C25.6052 16.8263 25.6931 17.0522 25.852 17.2198C26.0108 17.3874 26.2277 17.4829 26.4547 17.4854H26.4588ZM25.2008 19.4161C25.5986 19.4161 25.9201 19.0769 25.9201 18.6629C25.9201 18.2489 25.5986 17.9097 25.2008 17.9097C24.8029 17.9097 24.4815 18.2489 24.4815 18.6629C24.4815 19.0769 24.8029 19.4161 25.2008 19.4161ZM22.6421 18.3995C23.0469 18.3995 23.3782 18.0531 23.3782 17.6278C23.3782 17.2026 23.0498 16.8562 22.6421 16.8562C22.2343 16.8562 21.9059 17.2026 21.9059 17.6278C21.9059 18.0531 22.2373 18.3995 22.6421 18.3995ZM19.4514 17.9281C19.6456 17.925 19.8308 17.8431 19.9671 17.7002C20.1034 17.5573 20.1799 17.3647 20.18 17.1641C20.1801 16.9635 20.1039 16.7709 19.9678 16.6278C19.8317 16.4847 19.6466 16.4026 19.4524 16.3991H19.4514C19.2572 16.4023 19.072 16.4842 18.9357 16.6271C18.7993 16.77 18.7229 16.9625 18.7228 17.1631C18.7226 17.3637 18.7988 17.5564 18.935 17.6995C19.0711 17.8426 19.2562 17.9247 19.4504 17.9281H19.4514ZM21.2253 19.7419C21.5775 19.7419 21.8603 19.4427 21.8603 19.0789C21.8619 18.9047 21.7964 18.737 21.6783 18.6127C21.5601 18.4883 21.399 18.4175 21.2304 18.4159H21.2253C20.8731 18.4159 20.5903 18.7151 20.5903 19.0789C20.5885 19.2528 20.6536 19.4204 20.7714 19.5447C20.8891 19.6691 21.0499 19.74 21.2183 19.7419H21.2253ZM23.783 20.7759C24.1352 20.7759 24.4249 20.4767 24.4249 20.1057C24.4249 19.7348 24.1392 19.4355 23.783 19.4355C23.6109 19.4355 23.4459 19.5061 23.3242 19.6318C23.2025 19.7575 23.1342 19.928 23.1342 20.1057C23.1342 20.2835 23.2025 20.4539 23.3242 20.5796C23.4459 20.7053 23.6109 20.7759 23.783 20.7759ZM22.3424 21.5517C22.6212 21.5517 22.8484 21.3139 22.8484 21.0219C22.8492 20.8824 22.7964 20.7482 22.7015 20.6489C22.6067 20.5495 22.4775 20.4932 22.3424 20.4921C22.0637 20.4921 21.8365 20.7298 21.8365 21.0219C21.8362 21.1612 21.8892 21.2951 21.9839 21.3943C22.0787 21.4935 22.2075 21.5501 22.3424 21.5517ZM20.9773 21.9677C21.0377 21.9673 21.0975 21.9547 21.1532 21.9304C21.2089 21.9062 21.2594 21.8708 21.3019 21.8264C21.3444 21.782 21.3779 21.7293 21.4007 21.6715C21.4235 21.6137 21.435 21.5518 21.4346 21.4894V21.4881C21.4346 21.2217 21.2283 21.0086 20.9773 21.0086C20.9168 21.0089 20.8571 21.0216 20.8014 21.0459C20.7457 21.0701 20.6951 21.1055 20.6527 21.1499C20.6102 21.1943 20.5766 21.2469 20.5538 21.3048C20.5311 21.3626 20.5195 21.4245 20.5199 21.4869V21.4881C20.5178 21.6131 20.5639 21.7339 20.6479 21.8238C20.732 21.9137 20.8472 21.9654 20.9682 21.9676L20.9773 21.9677ZM19.7818 20.5884C20.0824 20.5884 20.3264 20.3322 20.3264 20.0186C20.3264 19.705 20.0824 19.4489 19.7818 19.4489C19.4811 19.4489 19.2371 19.705 19.2371 20.0186C19.2368 20.1686 19.2939 20.3126 19.3959 20.4193C19.4979 20.526 19.6366 20.5868 19.7818 20.5884ZM18.0277 19.2818C18.3769 19.2818 18.6626 18.9867 18.6626 18.6188C18.6626 18.2509 18.3799 17.9558 18.0277 17.9558C17.6784 17.9558 17.3927 18.2509 17.3927 18.6188C17.3924 18.7935 17.459 18.9612 17.578 19.0854C17.6969 19.2096 17.8585 19.2802 18.0277 19.2818ZM23.2294 27.5886C23.9834 27.5886 24.5946 26.9471 24.5946 26.157C24.5946 25.3669 23.9834 24.7254 23.2294 24.7254C22.4754 24.7254 21.8642 25.3669 21.8642 26.157C21.8642 26.9471 22.4754 27.5886 23.2294 27.5886ZM19.7619 25.7768C20.3899 25.7768 20.8999 25.2429 20.8999 24.584C20.8999 23.925 20.3899 23.3911 19.7619 23.3911C19.1339 23.3911 18.6239 23.925 18.6239 24.584C18.6239 25.2429 19.1329 25.7768 19.7619 25.7768ZM17.7806 28.3992C18.4156 28.3992 18.9285 27.8622 18.9285 27.1951C18.9285 26.532 18.4156 25.991 17.7806 25.991C17.1457 25.991 16.6327 26.5279 16.6327 27.1951C16.6304 27.512 16.7499 27.8168 16.9652 28.0427C17.1804 28.2685 17.4737 28.3967 17.7805 28.3992H17.7806ZM17.1844 23.5674C17.3159 23.5665 17.4461 23.5388 17.5673 23.4859C17.6885 23.433 17.7985 23.356 17.8909 23.2592C17.9833 23.1624 18.0563 23.0478 18.1059 22.9218C18.1554 22.7959 18.1804 22.6611 18.1795 22.5252C18.1804 22.3893 18.1554 22.2545 18.1059 22.1286C18.0563 22.0026 17.9833 21.888 17.8909 21.7912C17.7985 21.6945 17.6885 21.6174 17.5673 21.5645C17.4461 21.5117 17.3159 21.484 17.1844 21.483C17.0528 21.484 16.9226 21.5117 16.8014 21.5645C16.6802 21.6174 16.5702 21.6945 16.4778 21.7912C16.3854 21.888 16.3124 22.0026 16.2629 22.1286C16.2133 22.2545 16.1883 22.3893 16.1892 22.5252C16.1902 23.0991 16.6367 23.5674 17.1844 23.5674ZM15.208 26.2256C15.7557 26.2256 16.1992 25.7604 16.1992 25.1876C16.1992 24.6147 15.7557 24.1495 15.208 24.1495C14.6604 24.1495 14.2169 24.6147 14.2169 25.1876C14.2143 25.4601 14.3166 25.7226 14.5013 25.9173C14.686 26.112 14.9381 26.2229 15.202 26.2256H15.208ZM13.0779 28.0292C13.6256 28.0292 14.0661 27.564 14.0661 26.9942C14.0661 26.4214 13.6226 25.9592 13.0779 25.9592C12.5303 25.9592 12.0898 26.4244 12.0898 26.9942C12.0898 27.564 12.5332 28.0292 13.0779 28.0292ZM11.305 25.6815C11.5302 25.6793 11.7454 25.5852 11.9036 25.4197C12.0618 25.2542 12.1501 25.0307 12.1493 24.7981C12.1493 24.3114 11.7723 23.9148 11.305 23.9148C11.0804 23.9183 10.8662 24.0129 10.7086 24.1782C10.551 24.3435 10.4627 24.5662 10.4627 24.7981C10.4627 25.0301 10.551 25.2528 10.7086 25.4181C10.8662 25.5833 11.0804 25.678 11.305 25.6815ZM13.4391 23.8697C13.6644 23.8681 13.8799 23.7741 14.0382 23.6085C14.1965 23.4429 14.2847 23.2191 14.2834 22.9864C14.2834 22.4965 13.9064 22.103 13.4391 22.103C13.2145 22.1061 13.0001 22.2003 12.8422 22.3653C12.6843 22.5303 12.5956 22.7528 12.5952 22.9848C12.5948 23.2168 12.6828 23.4397 12.8401 23.6052C12.9974 23.7708 13.2115 23.8658 13.4361 23.8697H13.4391ZM15.4303 21.2125C15.5419 21.2117 15.6523 21.1882 15.7552 21.1433C15.858 21.0985 15.9513 21.0331 16.0297 20.951C16.1081 20.8689 16.1701 20.7717 16.2121 20.6648C16.2541 20.558 16.2753 20.4436 16.2746 20.3283V20.3262C16.2746 19.8363 15.8976 19.4397 15.4303 19.4397C15.3186 19.4405 15.2082 19.464 15.1054 19.5089C15.0025 19.5537 14.9092 19.6191 14.8308 19.7012C14.7524 19.7833 14.6904 19.8806 14.6484 19.9874C14.6064 20.0942 14.5852 20.2086 14.586 20.3239V20.3261C14.586 20.8159 14.963 21.2125 15.4303 21.2125ZM12.3844 21.5783C12.7892 21.5783 13.1176 21.236 13.1176 20.8108C13.1176 20.3855 12.7892 20.0432 12.3844 20.0432C11.9796 20.0432 11.6512 20.3855 11.6512 20.8108C11.6512 21.236 11.9796 21.5783 12.3844 21.5783ZM10.2613 23.3829C10.3571 23.3824 10.452 23.3624 10.5404 23.324C10.6288 23.2856 10.709 23.2295 10.7764 23.1591C10.8439 23.0887 10.8972 23.0053 10.9334 22.9136C10.9696 22.8218 10.988 22.7237 10.9875 22.6246V22.6226C10.9893 22.4228 10.9143 22.2305 10.7789 22.0879C10.6434 21.9453 10.4587 21.8641 10.2653 21.8622H10.2613C10.1654 21.8627 10.0705 21.8828 9.98212 21.9212C9.89372 21.9596 9.81352 22.0156 9.74608 22.086C9.67864 22.1564 9.62529 22.2399 9.58908 22.3316C9.55286 22.4233 9.53449 22.5215 9.53502 22.6205V22.6226C9.53436 22.7217 9.55263 22.8201 9.58877 22.912C9.62492 23.0039 9.67823 23.0875 9.74567 23.1581C9.81311 23.2287 9.89335 23.2849 9.98181 23.3235C10.0703 23.3621 10.1652 23.3823 10.2613 23.3829ZM9.77313 21.2678C9.94049 21.2665 10.1005 21.1967 10.2182 21.0738C10.3359 20.9509 10.4017 20.7848 10.4011 20.612C10.4011 20.2482 10.1184 19.9561 9.77313 19.9561C9.42787 19.9561 9.14511 20.2512 9.14511 20.612C9.14511 20.9758 9.42787 21.2678 9.77313 21.2678ZM9.75527 19.412C9.82654 19.4113 9.89698 19.3961 9.96258 19.3673C10.0282 19.3385 10.0876 19.2967 10.1376 19.2442C10.1875 19.1916 10.2269 19.1295 10.2536 19.0612C10.2803 18.9929 10.2937 18.9199 10.293 18.8463C10.293 18.5358 10.0519 18.2806 9.75527 18.2806C9.45862 18.2806 9.21753 18.5327 9.21753 18.8463C9.21753 19.1599 9.45862 19.412 9.75527 19.412ZM10.0509 17.8687C10.3059 17.8687 10.5083 17.6524 10.5083 17.3891C10.5083 17.1257 10.3019 16.9095 10.0509 16.9095C9.79595 16.9095 9.59355 17.1257 9.59355 17.3891C9.59355 17.6524 9.79595 17.8687 10.0509 17.8687ZM11.8814 17.6104C12.182 17.6104 12.4261 17.3542 12.4261 17.0407C12.4261 16.7271 12.182 16.4709 11.8814 16.4709C11.5808 16.4709 11.3367 16.7271 11.3367 17.0407C11.3362 17.1907 11.3932 17.3348 11.4953 17.4416C11.5973 17.5484 11.7362 17.6091 11.8814 17.6104ZM13.8905 16.8019C14.2397 16.8019 14.5254 16.5026 14.5254 16.1389C14.527 15.9647 14.4616 15.7969 14.3434 15.6726C14.2253 15.5483 14.0642 15.4775 13.8955 15.4758H13.8905C13.5412 15.4758 13.2555 15.7751 13.2555 16.1389C13.2549 16.2253 13.2707 16.3109 13.3021 16.391C13.3335 16.4711 13.3799 16.544 13.4386 16.6056C13.4972 16.6671 13.5671 16.7162 13.6441 16.7498C13.7212 16.7835 13.8039 16.8012 13.8875 16.8019H13.8905ZM14.3687 18.9068C14.5597 18.9063 14.7428 18.8276 14.8777 18.6879C15.0126 18.5481 15.0883 18.3587 15.0881 18.1614C15.0879 17.964 15.0118 17.7749 14.8767 17.6354C14.7415 17.4959 14.5583 17.4176 14.3672 17.4176C14.1761 17.4176 13.9929 17.4959 13.8577 17.6354C13.7225 17.7749 13.6465 17.964 13.6463 18.1614C13.6461 18.3587 13.7218 18.5481 13.8567 18.6879C13.9916 18.8276 14.1746 18.9063 14.3657 18.9068H14.3687ZM11.9072 19.4673C12.2564 19.4673 12.5352 19.1722 12.5352 18.8074C12.5352 18.4425 12.2525 18.1474 11.9072 18.1474C11.8242 18.1479 11.7421 18.1653 11.6657 18.1986C11.5892 18.2319 11.5198 18.2804 11.4615 18.3414C11.4032 18.4024 11.3571 18.4747 11.3258 18.5541C11.2945 18.6335 11.2787 18.7185 11.2792 18.8042V18.8074C11.278 18.8928 11.2931 18.9776 11.3237 19.057C11.3543 19.1364 11.3997 19.2088 11.4573 19.2701C11.515 19.3314 11.5837 19.3803 11.6597 19.4141C11.7357 19.448 11.8173 19.466 11.9001 19.4672H11.9072V19.4673ZM4.96228 18.4886C5.71233 18.4886 6.32348 17.8502 6.32348 17.0642C6.32348 16.2782 5.71233 15.6398 4.96228 15.6398C4.21223 15.6398 3.60107 16.2793 3.60107 17.0652C3.60107 17.8512 4.21223 18.4886 4.96228 18.4886ZM8.05178 15.9452C8.69766 15.9452 9.21753 15.3969 9.21753 14.7226C9.21753 14.0483 8.69369 13.5001 8.05178 13.5001C7.74051 13.5022 7.44283 13.632 7.22421 13.8609C7.00558 14.0898 6.88394 14.399 6.88602 14.7205V14.7226C6.88602 15.401 7.40987 15.9452 8.05178 15.9452ZM6.84634 12.8094C7.48825 12.8094 8.00515 12.2652 8.00515 11.594C8.00515 10.9228 7.48527 10.3786 6.84634 10.3786C6.69312 10.3797 6.54161 10.4119 6.40045 10.4735C6.25929 10.535 6.13125 10.6247 6.02365 10.7373C5.91604 10.85 5.83097 10.9834 5.7733 11.1301C5.71563 11.2767 5.68648 11.4336 5.68753 11.5919V11.594C5.68438 11.9131 5.80406 12.2204 6.02024 12.4483C6.23642 12.6762 6.53139 12.8061 6.84029 12.8094H6.84634ZM9.82472 11.3235C10.3724 11.3235 10.8198 10.8582 10.8198 10.2813C10.8198 9.70434 10.3734 9.2391 9.82472 9.2391C9.27607 9.2391 8.82961 9.70434 8.82961 10.2813C8.82961 10.8582 9.27706 11.3235 9.82472 11.3235ZM11.0421 14.4521C11.5937 14.4521 12.0401 13.9838 12.0401 13.4068C12.0401 12.8299 11.5937 12.3616 11.0421 12.3616C10.4904 12.3616 10.044 12.8299 10.044 13.4068C10.044 13.9838 10.4904 14.4521 11.0421 14.4521ZM13.7526 13.8024C13.9794 13.8005 14.1961 13.7056 14.3552 13.5386C14.5143 13.3716 14.6026 13.1462 14.6008 12.912C14.6025 12.7969 14.5823 12.6826 14.5412 12.5756C14.5002 12.4687 14.4391 12.3711 14.3616 12.2885C14.284 12.2059 14.1915 12.1399 14.0892 12.0942C13.9869 12.0485 13.877 12.0241 13.7656 12.0224C13.6542 12.0206 13.5435 12.0415 13.44 12.0839C13.3364 12.1263 13.2419 12.1894 13.1619 12.2695C13.082 12.3496 13.018 12.4452 12.9738 12.5508C12.9296 12.6565 12.906 12.7701 12.9043 12.8851C12.9043 12.8941 12.9043 12.9031 12.9043 12.912C12.9017 13.1454 12.9889 13.3704 13.1469 13.5374C13.3048 13.7044 13.5205 13.7997 13.7465 13.8025L13.7526 13.8024ZM16.094 13.8106C16.4988 13.8106 16.8272 13.4683 16.8272 13.0461C16.8272 12.6239 16.4988 12.2816 16.094 12.2816C15.8977 12.2816 15.7095 12.3622 15.5707 12.5055C15.4318 12.6489 15.3539 12.8434 15.3539 13.0461C15.3539 13.2489 15.4318 13.4433 15.5707 13.5867C15.7095 13.73 15.8977 13.8106 16.094 13.8106ZM18.0287 14.2707C18.367 14.2707 18.6468 13.9827 18.6468 13.6251C18.6468 13.2675 18.3709 12.9795 18.0287 12.9795C17.8639 12.9808 17.7064 13.0495 17.5906 13.1705C17.4747 13.2915 17.41 13.4549 17.4106 13.6251C17.4145 13.9786 17.6893 14.2707 18.0287 14.2707ZM18.2807 11.9158C18.4242 11.9147 18.5614 11.8549 18.6622 11.7494C18.763 11.6439 18.8192 11.5014 18.8184 11.3532C18.8184 11.0427 18.5773 10.7906 18.2807 10.7906C17.984 10.7906 17.7429 11.0427 17.7429 11.3532C17.7421 11.5014 17.7983 11.6439 17.8991 11.7494C17.9999 11.8549 18.1372 11.9147 18.2807 11.9158ZM16.7925 11.1452C16.9567 11.1447 17.114 11.077 17.2299 10.9569C17.3458 10.8367 17.4108 10.6739 17.4106 10.5043C17.4104 10.3347 17.345 10.1721 17.2288 10.0522C17.1126 9.93236 16.9551 9.86503 16.7909 9.86503C16.6267 9.86503 16.4692 9.93236 16.353 10.0522C16.2368 10.1721 16.1714 10.3347 16.1712 10.5043C16.171 10.6739 16.236 10.8367 16.3519 10.9569C16.4678 11.077 16.6252 11.1447 16.7894 11.1452H16.7925ZM14.8806 10.6779C15.0745 10.6762 15.2598 10.5953 15.3959 10.4527C15.5321 10.3102 15.6079 10.1177 15.6069 9.9175C15.6069 9.49529 15.2824 9.15712 14.8806 9.15712C14.4788 9.15712 14.1544 9.49939 14.1544 9.9175C14.1536 10.0165 14.1717 10.1148 14.2077 10.2066C14.2437 10.2984 14.2968 10.382 14.364 10.4526C14.4313 10.5232 14.5114 10.5795 14.5997 10.6181C14.6879 10.6568 14.7827 10.6771 14.8786 10.6779H14.8806ZM12.5432 10.6809C13.0144 10.6809 13.3944 10.2813 13.3944 9.79042C13.3944 9.29956 13.0144 8.8999 12.5432 8.8999C12.0719 8.8999 11.6919 9.29956 11.6919 9.79042C11.6911 10.0249 11.7802 10.2502 11.9397 10.417C12.0992 10.5839 12.3162 10.6788 12.5432 10.6809ZM9.39513 8.45413C9.92889 8.45413 10.3585 8.00323 10.3585 7.44473C10.3585 6.88623 9.92592 6.43534 9.39513 6.43534C8.86136 6.43534 8.43177 6.88623 8.43177 7.44473C8.43177 8.00323 8.86434 8.45413 9.39513 8.45413ZM12.1046 7.84234C12.5759 7.84234 12.9559 7.44268 12.9559 6.95182C12.9559 6.46096 12.5759 6.0613 12.1046 6.0613C11.6334 6.0613 11.2534 6.46096 11.2534 6.95182C11.2534 7.44268 11.6334 7.84234 12.1046 7.84234ZM14.4451 7.85361C14.8499 7.85361 15.1783 7.51134 15.1783 7.08606C15.1783 6.66078 14.8499 6.31851 14.4451 6.31851C14.3483 6.31905 14.2525 6.33928 14.1633 6.37804C14.074 6.4168 13.9931 6.47333 13.925 6.54442C13.8569 6.6155 13.803 6.69974 13.7665 6.79232C13.7299 6.88491 13.7114 6.98402 13.7119 7.08401V7.08606C13.7111 7.28812 13.7877 7.48229 13.9251 7.62612C14.0625 7.76995 14.2495 7.85175 14.4451 7.85361ZM16.3658 8.31066C16.7081 8.31066 16.9839 8.0227 16.9839 7.66506C16.9839 7.30741 16.7081 7.01945 16.3658 7.01945C16.2001 7.01945 16.0411 7.08747 15.9239 7.20855C15.8067 7.32962 15.7408 7.49383 15.7408 7.66506C15.7408 7.83628 15.8067 8.00049 15.9239 8.12157C16.0411 8.24264 16.2001 8.31066 16.3658 8.31066ZM17.8411 9.10178C17.9883 9.1007 18.1291 9.03934 18.2325 8.93117C18.3359 8.823 18.3936 8.67686 18.3928 8.52484C18.3928 8.20408 18.1447 7.94789 17.8411 7.94789C17.5376 7.94789 17.2895 8.20716 17.2895 8.52484C17.2895 8.84251 17.5376 9.10178 17.8411 9.10178ZM18.9236 10.0097C18.9835 10.0093 19.0428 9.99673 19.098 9.97267C19.1532 9.94861 19.2033 9.91354 19.2454 9.86949C19.2875 9.82543 19.3208 9.77323 19.3434 9.71589C19.3659 9.65854 19.3774 9.59716 19.377 9.53526V9.53423C19.3775 9.47233 19.3662 9.41092 19.3437 9.35352C19.3213 9.29612 19.2881 9.24385 19.2461 9.1997C19.2041 9.15555 19.1541 9.12037 19.0989 9.09619C19.0437 9.072 18.9845 9.05928 18.9246 9.05874H18.9236C18.8636 9.05914 18.8044 9.07173 18.7491 9.0958C18.6939 9.11986 18.6438 9.15492 18.6017 9.19898C18.5596 9.24304 18.5263 9.29523 18.5038 9.35258C18.4812 9.40992 18.4698 9.4713 18.4702 9.53321V9.53423C18.4692 9.59573 18.4801 9.65681 18.502 9.71399C18.5239 9.77117 18.5566 9.82332 18.598 9.86746C18.6395 9.91161 18.689 9.94689 18.7436 9.97128C18.7983 9.99567 18.8571 10.0087 18.9166 10.0096H18.9238L18.9236 10.0097Z" fill="black"/>
</svg>
