<svg width="32" height="32" viewBox="0 0 32 32" fill="none" xmlns="http://www.w3.org/2000/svg">
<circle cx="16" cy="16" r="16" fill="#ADAAAA"/>
<path fillRule="evenodd" clip-rule="evenodd" d="M15.6471 7.03783L10.2006 15.7057C10.1359 15.7587 10.0917 15.8308 10.0724 15.9096L9.90479 16.1764L16 19.7037L22.0953 16.1764L16.3529 7.03782C16.3361 6.99659 16.3123 6.95896 16.2829 6.92643L16 6.4762L15.7171 6.92642C15.6878 6.95896 15.6639 6.99659 15.6471 7.03783ZM15.6191 8.51449L11.4955 15.0769L15.6191 13.1139V8.51449ZM15.6191 13.9578L11.2149 16.0543L15.6191 18.603V13.9578ZM16.381 18.603V13.9665L20.7116 16.0968L16.381 18.603ZM16.381 13.1174V8.51449L20.5672 15.1767L16.381 13.1174ZM15.9556 20.7362L9.90479 17.2346L16 25.5238L22.0953 17.2346L16.0444 20.7362C16.0299 20.7345 16.015 20.7336 16 20.7336C15.985 20.7336 15.9702 20.7345 15.9556 20.7362ZM15.6191 21.4217L12.6778 19.7196L15.6191 23.7196V21.4217ZM16.381 23.7196L19.3223 19.7196L16.381 21.4217V23.7196Z" fill="white"/>
</svg>
