<svg width="32" height="32" viewBox="0 0 32 32" fill="none" xmlns="http://www.w3.org/2000/svg">
<g clip-path="url(#clip0_301_3243)">
<path d="M16 32C24.8366 32 32 24.8366 32 16C32 7.16344 24.8366 0 16 0C7.16344 0 0 7.16344 0 16C0 24.8366 7.16344 32 16 32Z" fill="#FF0420"/>
<path d="M11.6042 20.48C10.6392 20.48 9.84853 20.2477 9.23214 19.7831C8.62395 19.3102 8.31982 18.6382 8.31982 17.7671C8.31982 17.5846 8.34011 17.3606 8.38062 17.0951C8.4861 16.4978 8.63611 15.7802 8.83074 14.9422C9.38216 12.6608 10.8055 11.52 13.1005 11.52C13.7249 11.52 14.2845 11.6279 14.7792 11.8436C15.2739 12.051 15.6631 12.3662 15.947 12.7893C16.2308 13.2042 16.3728 13.702 16.3728 14.2827C16.3728 14.4569 16.3525 14.6768 16.3119 14.9422C16.1903 15.6806 16.0443 16.3982 15.874 17.0951C15.5902 18.2317 15.0995 19.0821 14.4021 19.6462C13.7047 20.2021 12.772 20.48 11.6042 20.48ZM11.7745 18.688C12.2287 18.688 12.6139 18.5511 12.9302 18.2773C13.2545 18.0036 13.4857 17.5846 13.6236 17.0204C13.8101 16.2406 13.952 15.5603 14.0493 14.9796C14.0817 14.8053 14.0979 14.627 14.0979 14.4444C14.0979 13.6895 13.7128 13.312 12.9424 13.312C12.4882 13.312 12.099 13.4489 11.7745 13.7227C11.4583 13.9964 11.2312 14.4154 11.0933 14.9796C10.9473 15.5354 10.8014 16.2157 10.6554 17.0204C10.623 17.1864 10.6067 17.3606 10.6067 17.5431C10.6067 18.3064 10.996 18.688 11.7745 18.688Z" fill="white"/>
<path d="M16.9314 20.3557C16.8422 20.3557 16.7733 20.3266 16.7246 20.2685C16.6841 20.2022 16.6719 20.1275 16.6881 20.0445L18.3668 11.9557C18.383 11.8644 18.4276 11.7897 18.5006 11.7317C18.5736 11.6736 18.6506 11.6445 18.7317 11.6445H21.9675C22.8677 11.6445 23.5894 11.8354 24.1328 12.217C24.6842 12.5986 24.96 13.1503 24.96 13.8721C24.96 14.0795 24.9356 14.2952 24.887 14.5192C24.6842 15.4733 24.2747 16.1785 23.6583 16.6348C23.0501 17.0911 22.2148 17.3192 21.1525 17.3192H19.5102L18.9507 20.0445C18.9345 20.1358 18.8899 20.2105 18.8169 20.2685C18.7439 20.3266 18.6668 20.3557 18.5858 20.3557H16.9314ZM21.2376 15.6019C21.5782 15.6019 21.8742 15.5065 22.1257 15.3157C22.3851 15.1248 22.5554 14.8511 22.6366 14.4943C22.6609 14.3533 22.673 14.2289 22.673 14.121C22.673 13.8804 22.6041 13.6979 22.4663 13.5734C22.3283 13.4407 22.0932 13.3743 21.7607 13.3743H20.301L19.8387 15.6019H21.2376Z" fill="white"/>
</g>
<defs>
<clipPath id="clip0_301_3243">
<rect width="32" height="32" fill="white"/>
</clipPath>
</defs>
</svg>
